<svg id="visual" viewBox="0 0 960 540" width="960" height="540" xmlns="http://www.w3.org/2000/svg" xmlns:xlink="http://www.w3.org/1999/xlink" version="1.1"><rect x="0" y="0" width="960" height="540" fill="#0D292E"></rect><path d="M0 376L22.8 384.8C45.7 393.7 91.3 411.3 137 414C182.7 416.7 228.3 404.3 274 403.8C319.7 403.3 365.3 414.7 411.2 413.2C457 411.7 503 397.3 548.8 389.3C594.7 381.3 640.3 379.7 686 376.3C731.7 373 777.3 368 823 370C868.7 372 914.3 381 937.2 385.5L960 390L960 541L937.2 541C914.3 541 868.7 541 823 541C777.3 541 731.7 541 686 541C640.3 541 594.7 541 548.8 541C503 541 457 541 411.2 541C365.3 541 319.7 541 274 541C228.3 541 182.7 541 137 541C91.3 541 45.7 541 22.8 541L0 541Z" fill="#393e46"></path><path d="M0 434L22.8 431.3C45.7 428.7 91.3 423.3 137 423.8C182.7 424.3 228.3 430.7 274 436.3C319.7 442 365.3 447 411.2 441.2C457 435.3 503 418.7 548.8 411.5C594.7 404.3 640.3 406.7 686 411.7C731.7 416.7 777.3 424.3 823 427.2C868.7 430 914.3 428 937.2 427L960 426L960 541L937.2 541C914.3 541 868.7 541 823 541C777.3 541 731.7 541 686 541C640.3 541 594.7 541 548.8 541C503 541 457 541 411.2 541C365.3 541 319.7 541 274 541C228.3 541 182.7 541 137 541C91.3 541 45.7 541 22.8 541L0 541Z" fill="#405a6b"></path><path d="M0 452L22.8 454.8C45.7 457.7 91.3 463.3 137 460.5C182.7 457.7 228.3 446.3 274 440.5C319.7 434.7 365.3 434.3 411.2 436.7C457 439 503 444 548.8 446.3C594.7 448.7 640.3 448.3 686 446.3C731.7 444.3 777.3 440.7 823 443.8C868.7 447 914.3 457 937.2 462L960 467L960 541L937.2 541C914.3 541 868.7 541 823 541C777.3 541 731.7 541 686 541C640.3 541 594.7 541 548.8 541C503 541 457 541 411.2 541C365.3 541 319.7 541 274 541C228.3 541 182.7 541 137 541C91.3 541 45.7 541 22.8 541L0 541Z" fill="#3b798c"></path><path d="M0 466L22.8 470.2C45.7 474.3 91.3 482.7 137 487.3C182.7 492 228.3 493 274 487.7C319.7 482.3 365.3 470.7 411.2 467.5C457 464.3 503 469.7 548.8 472.5C594.7 475.3 640.3 475.7 686 474.8C731.7 474 777.3 472 823 475.2C868.7 478.3 914.3 486.7 937.2 490.8L960 495L960 541L937.2 541C914.3 541 868.7 541 823 541C777.3 541 731.7 541 686 541C640.3 541 594.7 541 548.8 541C503 541 457 541 411.2 541C365.3 541 319.7 541 274 541C228.3 541 182.7 541 137 541C91.3 541 45.7 541 22.8 541L0 541Z" fill="#2f9aa5"></path><path d="M0 509L22.8 507.2C45.7 505.3 91.3 501.7 137 497.8C182.7 494 228.3 490 274 492.5C319.7 495 365.3 504 411.2 509.7C457 515.3 503 517.7 548.8 513.5C594.7 509.3 640.3 498.7 686 498.2C731.7 497.7 777.3 507.3 823 512.3C868.7 517.3 914.3 517.7 937.2 517.8L960 518L960 541L937.2 541C914.3 541 868.7 541 823 541C777.3 541 731.7 541 686 541C640.3 541 594.7 541 548.8 541C503 541 457 541 411.2 541C365.3 541 319.7 541 274 541C228.3 541 182.7 541 137 541C91.3 541 45.7 541 22.8 541L0 541Z" fill="#35bcb3"></path></svg>